<svg aria-hidden="true" style="position: absolute; width: 0; height: 0; overflow: hidden;" version="1.1" xmlns="http://www.w3.org/2000/svg" xmlns:xlink="http://www.w3.org/1999/xlink">
<defs>
<symbol id="icon-hotel" viewBox="0 0 24 24">
<path d="M18.984 6.984q1.641 0 2.836 1.195t1.195 2.836v9h-2.016v-3h-18v3h-2.016v-15h2.016v9h8.016v-7.031h7.969zM6.984 12.984q-1.219 0-2.109-0.891t-0.891-2.109 0.891-2.109 2.109-0.891 2.109 0.891 0.891 2.109-0.891 2.109-2.109 0.891z"></path>
</symbol>
<symbol id="icon-plane-outline" viewBox="0 0 24 24">
<path d="M20.988 12.396l-4.988-2.851v-4.795c0-1.93-1.57-3.5-3.5-3.5s-3.5 1.57-3.5 3.5v4.795l-4.988 2.851c-1.317 0.752-1.865 2.371-1.276 3.769 0.589 1.399 2.132 2.135 3.589 1.72l2.675-0.765v0.838l-0.874 0.699c-1.198 0.959-1.48 2.667-0.653 3.959 0.827 1.293 2.494 1.753 3.869 1.066 0.004-0.001 0.5-0.183 1.158-0.183s1.154 0.182 1.158 0.183c1.375 0.687 3.042 0.227 3.869-1.066 0.827-1.292 0.545-3-0.653-3.959l-0.874-0.699v-0.838l2.676 0.765c1.457 0.415 3-0.321 3.589-1.72s0.041-3.017-1.277-3.769zM20.422 15.388c-0.197 0.466-0.711 0.713-1.196 0.573l-5.226-1.492v4.451l1.625 1.3c0.399 0.319 0.493 0.889 0.218 1.32s-0.828 0.583-1.29 0.355c-0.008-0.004-0.824-0.395-2.053-0.395s-2.045 0.391-2.053 0.395c-0.462 0.227-1.015 0.074-1.29-0.355-0.275-0.431-0.182-1 0.218-1.32l1.625-1.3v-4.451l-5.226 1.493c-0.485 0.14-0.999-0.107-1.196-0.573s-0.014-1.005 0.426-1.256l5.996-3.427v-5.956c0-0.827 0.673-1.5 1.5-1.5s1.5 0.673 1.5 1.5v5.956l5.996 3.426c0.44 0.251 0.622 0.79 0.426 1.256z"></path>
<path d="M13 4.5c0 0.276-0.224 0.5-0.5 0.5s-0.5-0.224-0.5-0.5c0-0.276 0.224-0.5 0.5-0.5s0.5 0.224 0.5 0.5z"></path>
</symbol>
<symbol id="icon-arrow-right" viewBox="0 0 24 24">
<path d="M11.293 5.707l5.293 5.293h-11.586c-0.552 0-1 0.448-1 1s0.448 1 1 1h11.586l-5.293 5.293c-0.391 0.391-0.391 1.024 0 1.414s1.024 0.391 1.414 0l7-7c0.092-0.092 0.166-0.202 0.217-0.324 0.101-0.245 0.101-0.521 0-0.766-0.049-0.118-0.121-0.228-0.217-0.324l-7-7c-0.391-0.391-1.024-0.391-1.414 0s-0.391 1.024 0 1.414z"></path>
</symbol>
<symbol id="icon-award" viewBox="0 0 24 24">
<path d="M14.986 15.424l0.75 5.652-3.221-1.933c-0.311-0.184-0.703-0.196-1.029 0l-3.221 1.933 0.751-5.651c0.921 0.371 1.929 0.575 2.984 0.575s2.063-0.205 2.986-0.576zM15.332 12.991c-0.058 0.030-0.113 0.065-0.163 0.105-0.92 0.573-2.005 0.904-3.169 0.904-1.657 0-3.156-0.67-4.243-1.757s-1.757-2.586-1.757-4.243 0.67-3.156 1.757-4.243 2.586-1.757 4.243-1.757 3.156 0.67 4.243 1.757 1.757 2.586 1.757 4.243-0.67 3.156-1.757 4.243c-0.278 0.278-0.583 0.529-0.911 0.748zM7.14 14.355l-1.131 8.513c-0.073 0.547 0.312 1.050 0.86 1.123 0.234 0.031 0.461-0.022 0.646-0.134l4.485-2.691 4.486 2.691c0.474 0.284 1.088 0.131 1.372-0.343 0.122-0.203 0.163-0.431 0.134-0.646l-1.13-8.515c0.28-0.215 0.546-0.448 0.795-0.697 1.446-1.446 2.343-3.447 2.343-5.656s-0.897-4.21-2.343-5.657-3.448-2.343-5.657-2.343-4.21 0.897-5.657 2.343-2.343 3.448-2.343 5.657 0.897 4.21 2.343 5.657c0.25 0.25 0.516 0.483 0.796 0.698z"></path>
</symbol>
<symbol id="icon-briefcase" viewBox="0 0 24 24">
<path d="M9 6v-1c0-0.276 0.111-0.525 0.293-0.707s0.431-0.293 0.707-0.293h4c0.276 0 0.525 0.111 0.707 0.293s0.293 0.431 0.293 0.707v1zM9 20v-12h6v12zM7 8v12h-3c-0.276 0-0.525-0.111-0.707-0.293s-0.293-0.431-0.293-0.707v-10c0-0.276 0.111-0.525 0.293-0.707s0.431-0.293 0.707-0.293zM17 6v-1c0-0.828-0.337-1.58-0.879-2.121s-1.293-0.879-2.121-0.879h-4c-0.828 0-1.58 0.337-2.121 0.879s-0.879 1.293-0.879 2.121v1h-3c-0.828 0-1.58 0.337-2.121 0.879s-0.879 1.293-0.879 2.121v10c0 0.828 0.337 1.58 0.879 2.121s1.293 0.879 2.121 0.879h16c0.828 0 1.58-0.337 2.121-0.879s0.879-1.293 0.879-2.121v-10c0-0.828-0.337-1.58-0.879-2.121s-1.293-0.879-2.121-0.879zM17 20v-12h3c0.276 0 0.525 0.111 0.707 0.293s0.293 0.431 0.293 0.707v10c0 0.276-0.111 0.525-0.293 0.707s-0.431 0.293-0.707 0.293z"></path>
</symbol>
<symbol id="icon-calendar" viewBox="0 0 24 24">
<path d="M7 2v1h-2c-0.828 0-1.58 0.337-2.121 0.879s-0.879 1.293-0.879 2.121v14c0 0.828 0.337 1.58 0.879 2.121s1.293 0.879 2.121 0.879h14c0.828 0 1.58-0.337 2.121-0.879s0.879-1.293 0.879-2.121v-14c0-0.828-0.337-1.58-0.879-2.121s-1.293-0.879-2.121-0.879h-2v-1c0-0.552-0.448-1-1-1s-1 0.448-1 1v1h-6v-1c0-0.552-0.448-1-1-1s-1 0.448-1 1zM20 9h-16v-3c0-0.276 0.111-0.525 0.293-0.707s0.431-0.293 0.707-0.293h2v1c0 0.552 0.448 1 1 1s1-0.448 1-1v-1h6v1c0 0.552 0.448 1 1 1s1-0.448 1-1v-1h2c0.276 0 0.525 0.111 0.707 0.293s0.293 0.431 0.293 0.707zM4 11h16v9c0 0.276-0.111 0.525-0.293 0.707s-0.431 0.293-0.707 0.293h-14c-0.276 0-0.525-0.111-0.707-0.293s-0.293-0.431-0.293-0.707z"></path>
</symbol>
<symbol id="icon-check" viewBox="0 0 24 24">
<path d="M19.293 5.293l-10.293 10.293-4.293-4.293c-0.391-0.391-1.024-0.391-1.414 0s-0.391 1.024 0 1.414l5 5c0.391 0.391 1.024 0.391 1.414 0l11-11c0.391-0.391 0.391-1.024 0-1.414s-1.024-0.391-1.414 0z"></path>
</symbol>
<symbol id="icon-chevron-right" viewBox="0 0 24 24">
<path d="M9.707 18.707l6-6c0.391-0.391 0.391-1.024 0-1.414l-6-6c-0.391-0.391-1.024-0.391-1.414 0s-0.391 1.024 0 1.414l5.293 5.293-5.293 5.293c-0.391 0.391-0.391 1.024 0 1.414s1.024 0.391 1.414 0z"></path>
</symbol>
<symbol id="icon-clock" viewBox="0 0 24 24">
<path d="M23 12c0-3.037-1.232-5.789-3.222-7.778s-4.741-3.222-7.778-3.222-5.789 1.232-7.778 3.222-3.222 4.741-3.222 7.778 1.232 5.789 3.222 7.778 4.741 3.222 7.778 3.222 5.789-1.232 7.778-3.222 3.222-4.741 3.222-7.778zM21 12c0 2.486-1.006 4.734-2.636 6.364s-3.878 2.636-6.364 2.636-4.734-1.006-6.364-2.636-2.636-3.878-2.636-6.364 1.006-4.734 2.636-6.364 3.878-2.636 6.364-2.636 4.734 1.006 6.364 2.636 2.636 3.878 2.636 6.364zM11 6v6c0 0.389 0.222 0.727 0.553 0.894l4 2c0.494 0.247 1.095 0.047 1.342-0.447s0.047-1.095-0.447-1.342l-3.448-1.723v-5.382c0-0.552-0.448-1-1-1s-1 0.448-1 1z"></path>
</symbol>
<symbol id="icon-coffee" viewBox="0 0 24 24">
<path d="M19 15v-6c0.829 0 1.577 0.335 2.121 0.879s0.879 1.292 0.879 2.121-0.335 1.577-0.879 2.121-1.292 0.879-2.121 0.879zM2 7c-0.552 0-1 0.448-1 1v9c0 1.38 0.561 2.632 1.464 3.536s2.156 1.464 3.536 1.464h8c1.38 0 2.632-0.561 3.536-1.464s1.464-2.156 1.464-3.536c1.38 0 2.632-0.561 3.536-1.464s1.464-2.156 1.464-3.536-0.561-2.632-1.464-3.536-2.156-1.464-3.536-1.464h-1zM3 9h14v8c0 0.829-0.335 1.577-0.879 2.121s-1.292 0.879-2.121 0.879h-8c-0.829 0-1.577-0.335-2.121-0.879s-0.879-1.292-0.879-2.121zM5 1v3c0 0.552 0.448 1 1 1s1-0.448 1-1v-3c0-0.552-0.448-1-1-1s-1 0.448-1 1zM9 1v3c0 0.552 0.448 1 1 1s1-0.448 1-1v-3c0-0.552-0.448-1-1-1s-1 0.448-1 1zM13 1v3c0 0.552 0.448 1 1 1s1-0.448 1-1v-3c0-0.552-0.448-1-1-1s-1 0.448-1 1z"></path>
</symbol>
<symbol id="icon-feather" viewBox="0 0 24 24">
<path d="M18.111 15.792c0.069-0.053 0.13-0.115 0.183-0.184l2.653-2.661c1.367-1.367 2.051-3.161 2.051-4.952s-0.684-3.585-2.051-4.952-3.161-2.051-4.952-2.051-3.585 0.684-4.952 2.051l-6.75 6.75c-0.195 0.195-0.293 0.451-0.293 0.707v8.086l-2.707 2.707c-0.391 0.391-0.391 1.024 0 1.414s1.024 0.391 1.414 0l2.707-2.707h8.086c0.277 0 0.527-0.112 0.708-0.294zM9.414 16h5.665l-1.994 2h-5.671zM17.073 14h-5.659l5.293-5.293c0.391-0.391 0.391-1.024 0-1.414s-1.024-0.391-1.414 0l-9.293 9.293v-5.672l6.457-6.457c0.977-0.977 2.256-1.465 3.538-1.465s2.561 0.488 3.538 1.465 1.465 2.256 1.465 3.538-0.488 2.561-1.465 3.538z"></path>
</symbol>
<symbol id="icon-globe" viewBox="0 0 24 24">
<path d="M16.951 11c-0.214-2.69-1.102-5.353-2.674-7.71 1.57 0.409 2.973 1.232 4.087 2.346 1.408 1.408 2.351 3.278 2.581 5.364zM14.279 20.709c1.483-2.226 2.437-4.853 2.669-7.709h3.997c-0.23 2.086-1.173 3.956-2.581 5.364-1.113 1.113-2.516 1.936-4.085 2.345zM7.049 13c0.214 2.69 1.102 5.353 2.674 7.71-1.57-0.409-2.973-1.232-4.087-2.346-1.408-1.408-2.351-3.278-2.581-5.364zM9.721 3.291c-1.482 2.226-2.436 4.853-2.669 7.709h-3.997c0.23-2.086 1.173-3.956 2.581-5.364 1.114-1.113 2.516-1.936 4.085-2.345zM12.004 1c0 0 0 0 0 0-3.044 0.001-5.794 1.233-7.782 3.222-1.99 1.989-3.222 4.741-3.222 7.778s1.232 5.789 3.222 7.778c1.988 1.989 4.738 3.221 7.774 3.222 0 0 0 0 0 0 3.044-0.001 5.793-1.233 7.782-3.222 1.99-1.989 3.222-4.741 3.222-7.778s-1.232-5.789-3.222-7.778c-1.988-1.989-4.738-3.221-7.774-3.222zM14.946 13c-0.252 2.788-1.316 5.36-2.945 7.451-1.729-2.221-2.706-4.818-2.945-7.451zM11.999 3.549c1.729 2.221 2.706 4.818 2.945 7.451h-5.89c0.252-2.788 1.316-5.36 2.945-7.451z"></path>
</symbol>
<symbol id="icon-home" viewBox="0 0 24 24">
<path d="M2.386 8.211c-0.236 0.184-0.386 0.469-0.386 0.789v11c0 0.828 0.337 1.58 0.879 2.121s1.293 0.879 2.121 0.879h14c0.828 0 1.58-0.337 2.121-0.879s0.879-1.293 0.879-2.121v-11c-0.001-0.3-0.134-0.593-0.386-0.789l-9-7c-0.358-0.275-0.861-0.285-1.228 0zM16 21v-9c0-0.552-0.448-1-1-1h-6c-0.552 0-1 0.448-1 1v9h-3c-0.276 0-0.525-0.111-0.707-0.293s-0.293-0.431-0.293-0.707v-10.511l8-6.222 8 6.222v10.511c0 0.276-0.111 0.525-0.293 0.707s-0.431 0.293-0.707 0.293zM10 21v-8h4v8z"></path>
</symbol>
<symbol id="icon-image" viewBox="0 0 24 24">
<path d="M5 2c-0.828 0-1.58 0.337-2.121 0.879s-0.879 1.293-0.879 2.121v14c0 0.828 0.337 1.58 0.879 2.121s1.293 0.879 2.121 0.879h14c0.828 0 1.58-0.337 2.121-0.879s0.879-1.293 0.879-2.121v-14c0-0.828-0.337-1.58-0.879-2.121s-1.293-0.879-2.121-0.879zM11 8.5c0-0.69-0.281-1.316-0.732-1.768s-1.078-0.732-1.768-0.732-1.316 0.281-1.768 0.732-0.732 1.078-0.732 1.768 0.281 1.316 0.732 1.768 1.078 0.732 1.768 0.732 1.316-0.281 1.768-0.732 0.732-1.078 0.732-1.768zM9 8.5c0 0.138-0.055 0.262-0.146 0.354s-0.216 0.146-0.354 0.146-0.262-0.055-0.354-0.146-0.146-0.216-0.146-0.354 0.055-0.262 0.146-0.354 0.216-0.146 0.354-0.146 0.262 0.055 0.354 0.146 0.146 0.216 0.146 0.354zM7.414 20l8.586-8.586 4 4v3.586c0 0.276-0.111 0.525-0.293 0.707s-0.431 0.293-0.707 0.293zM20 12.586l-3.293-3.293c-0.391-0.391-1.024-0.391-1.414 0l-10.644 10.644c-0.135-0.050-0.255-0.129-0.356-0.23-0.182-0.182-0.293-0.431-0.293-0.707v-14c0-0.276 0.111-0.525 0.293-0.707s0.431-0.293 0.707-0.293h14c0.276 0 0.525 0.111 0.707 0.293s0.293 0.431 0.293 0.707z"></path>
</symbol>
<symbol id="icon-instagram" viewBox="0 0 24 24">
<path d="M7 1c-1.657 0-3.158 0.673-4.243 1.757s-1.757 2.586-1.757 4.243v10c0 1.657 0.673 3.158 1.757 4.243s2.586 1.757 4.243 1.757h10c1.657 0 3.158-0.673 4.243-1.757s1.757-2.586 1.757-4.243v-10c0-1.657-0.673-3.158-1.757-4.243s-2.586-1.757-4.243-1.757zM7 3h10c1.105 0 2.103 0.447 2.828 1.172s1.172 1.723 1.172 2.828v10c0 1.105-0.447 2.103-1.172 2.828s-1.723 1.172-2.828 1.172h-10c-1.105 0-2.103-0.447-2.828-1.172s-1.172-1.723-1.172-2.828v-10c0-1.105 0.447-2.103 1.172-2.828s1.723-1.172 2.828-1.172zM16.989 11.223c-0.15-0.972-0.571-1.857-1.194-2.567-0.754-0.861-1.804-1.465-3.009-1.644-0.464-0.074-0.97-0.077-1.477-0.002-1.366 0.202-2.521 0.941-3.282 1.967s-1.133 2.347-0.93 3.712 0.941 2.521 1.967 3.282 2.347 1.133 3.712 0.93 2.521-0.941 3.282-1.967 1.133-2.347 0.93-3.712zM15.011 11.517c0.122 0.82-0.1 1.609-0.558 2.227s-1.15 1.059-1.969 1.18-1.609-0.1-2.227-0.558-1.059-1.15-1.18-1.969 0.1-1.609 0.558-2.227 1.15-1.059 1.969-1.18c0.313-0.046 0.615-0.042 0.87-0.002 0.74 0.11 1.366 0.47 1.818 0.986 0.375 0.428 0.63 0.963 0.72 1.543zM17.5 7.5c0.552 0 1-0.448 1-1s-0.448-1-1-1-1 0.448-1 1 0.448 1 1 1z"></path>
</symbol>
<symbol id="icon-link-2" viewBox="0 0 24 24">
<path d="M15 8h3c1.105 0 2.103 0.447 2.828 1.172s1.172 1.723 1.172 2.828-0.447 2.103-1.172 2.828-1.723 1.172-2.828 1.172h-3c-0.552 0-1 0.448-1 1s0.448 1 1 1h3c1.657 0 3.158-0.673 4.243-1.757s1.757-2.586 1.757-4.243-0.673-3.158-1.757-4.243-2.586-1.757-4.243-1.757h-3c-0.552 0-1 0.448-1 1s0.448 1 1 1zM9 16h-3c-1.105 0-2.103-0.447-2.828-1.172s-1.172-1.723-1.172-2.828 0.447-2.103 1.172-2.828 1.723-1.172 2.828-1.172h3c0.552 0 1-0.448 1-1s-0.448-1-1-1h-3c-1.657 0-3.158 0.673-4.243 1.757s-1.757 2.586-1.757 4.243 0.673 3.158 1.757 4.243 2.586 1.757 4.243 1.757h3c0.552 0 1-0.448 1-1s-0.448-1-1-1zM8 13h8c0.552 0 1-0.448 1-1s-0.448-1-1-1h-8c-0.552 0-1 0.448-1 1s0.448 1 1 1z"></path>
</symbol>
<symbol id="icon-mail" viewBox="0 0 24 24">
<path d="M3 7.921l8.427 5.899c0.34 0.235 0.795 0.246 1.147 0l8.426-5.899v10.079c0 0.272-0.11 0.521-0.295 0.705s-0.433 0.295-0.705 0.295h-16c-0.272 0-0.521-0.11-0.705-0.295s-0.295-0.433-0.295-0.705zM1 5.983c0 0.010 0 0.020 0 0.030v11.987c0 0.828 0.34 1.579 0.88 2.12s1.292 0.88 2.12 0.88h16c0.828 0 1.579-0.34 2.12-0.88s0.88-1.292 0.88-2.12v-11.988c0-0.010 0-0.020 0-0.030-0.005-0.821-0.343-1.565-0.88-2.102-0.541-0.54-1.292-0.88-2.12-0.88h-16c-0.828 0-1.579 0.34-2.12 0.88-0.537 0.537-0.875 1.281-0.88 2.103zM20.894 5.554l-8.894 6.225-8.894-6.225c0.048-0.096 0.112-0.183 0.188-0.259 0.185-0.185 0.434-0.295 0.706-0.295h16c0.272 0 0.521 0.11 0.705 0.295 0.076 0.076 0.14 0.164 0.188 0.259z"></path>
</symbol>
<symbol id="icon-map" viewBox="0 0 24 24">
<path d="M7 3.723v13.697l-5 2.857v-13.697zM17 20.277v-13.697l5-2.857v13.696zM15.535 22.885c0.082 0.043 0.17 0.075 0.263 0.094 0.033 0.007 0.067 0.012 0.101 0.015s0.068 0.005 0.102 0.005c-0.001 0.001-0.001 0.001-0.001 0.001s0 0 0.001 0c0.173 0 0.344-0.046 0.496-0.132l0.015-0.009 6.985-3.991c0.32-0.183 0.501-0.518 0.503-0.868v-16c0-0.552-0.448-1-1-1-0.183 0-0.354 0.049-0.496 0.132l-6.535 3.734-7.503-3.752c-0.083-0.042-0.171-0.075-0.264-0.094-0.034-0.007-0.067-0.012-0.101-0.015s-0.068-0.005-0.102-0.005c0.001 0 0.001 0 0.001 0s0 0-0.001 0c-0.173 0-0.344 0.046-0.495 0.132l-0.015 0.008-6.985 3.992c-0.321 0.183-0.502 0.518-0.504 0.868v16c0 0.552 0.448 1 1 1 0.183 0 0.354-0.049 0.496-0.132l6.535-3.734zM15 6.618v13.764l-6-3v-13.764z"></path>
</symbol>
<symbol id="icon-map-pin" viewBox="0 0 24 24">
<path d="M22 10c0-2.761-1.12-5.263-2.929-7.071s-4.31-2.929-7.071-2.929-5.263 1.12-7.071 2.929-2.929 4.31-2.929 7.071c0 0.569 0.053 1.128 0.15 1.676 0.274 1.548 0.899 3.004 1.682 4.32 2.732 4.591 7.613 7.836 7.613 7.836 0.331 0.217 0.765 0.229 1.109 0 0 0 4.882-3.245 7.613-7.836 0.783-1.316 1.408-2.772 1.682-4.32 0.098-0.548 0.151-1.107 0.151-1.676zM20 10c0 0.444-0.041 0.887-0.119 1.328-0.221 1.25-0.737 2.478-1.432 3.646-1.912 3.214-5.036 5.747-6.369 6.74-1.398-0.916-4.588-3.477-6.53-6.74-0.695-1.168-1.211-2.396-1.432-3.646-0.077-0.441-0.118-0.884-0.118-1.328 0-2.209 0.894-4.208 2.343-5.657s3.448-2.343 5.657-2.343 4.208 0.894 5.657 2.343 2.343 3.448 2.343 5.657zM16 10c0-1.104-0.449-2.106-1.172-2.828s-1.724-1.172-2.828-1.172-2.106 0.449-2.828 1.172-1.172 1.724-1.172 2.828 0.449 2.106 1.172 2.828 1.724 1.172 2.828 1.172 2.106-0.449 2.828-1.172 1.172-1.724 1.172-2.828zM14 10c0 0.553-0.223 1.051-0.586 1.414s-0.861 0.586-1.414 0.586-1.051-0.223-1.414-0.586-0.586-0.861-0.586-1.414 0.223-1.051 0.586-1.414 0.861-0.586 1.414-0.586 1.051 0.223 1.414 0.586 0.586 0.861 0.586 1.414z"></path>
</symbol>
<symbol id="icon-menu" viewBox="0 0 24 24">
<path d="M3 13h18c0.552 0 1-0.448 1-1s-0.448-1-1-1h-18c-0.552 0-1 0.448-1 1s0.448 1 1 1zM3 7h18c0.552 0 1-0.448 1-1s-0.448-1-1-1h-18c-0.552 0-1 0.448-1 1s0.448 1 1 1zM3 19h18c0.552 0 1-0.448 1-1s-0.448-1-1-1h-18c-0.552 0-1 0.448-1 1s0.448 1 1 1z"></path>
</symbol>
<symbol id="icon-paperclip" viewBox="0 0 24 24">
<path d="M20.733 10.343l-9.19 9.19c-0.977 0.977-2.256 1.465-3.538 1.465s-2.561-0.488-3.538-1.465-1.465-2.256-1.465-3.538 0.488-2.561 1.465-3.538l9.19-9.19c0.586-0.586 1.353-0.879 2.123-0.879s1.536 0.293 2.123 0.879 0.879 1.353 0.879 2.123-0.293 1.536-0.879 2.123l-9.2 9.19c-0.196 0.196-0.451 0.294-0.708 0.294s-0.512-0.098-0.708-0.293-0.293-0.45-0.293-0.708 0.098-0.512 0.293-0.708l8.49-8.48c0.391-0.39 0.391-1.023 0.001-1.414s-1.023-0.391-1.414-0.001l-8.49 8.48c-0.586 0.586-0.879 1.356-0.879 2.122s0.293 1.536 0.879 2.122 1.356 0.879 2.122 0.879 1.536-0.293 2.122-0.879l9.2-9.19c0.977-0.977 1.465-2.258 1.465-3.537s-0.489-2.561-1.465-3.537-2.258-1.465-3.537-1.465-2.561 0.489-3.537 1.465l-9.19 9.19c-1.367 1.367-2.051 3.161-2.051 4.952s0.684 3.585 2.051 4.952 3.161 2.051 4.952 2.051 3.585-0.684 4.952-2.051l9.19-9.19c0.391-0.391 0.391-1.024 0-1.414s-1.024-0.391-1.414 0z"></path>
</symbol>
<symbol id="icon-phone" viewBox="0 0 24 24">
<path d="M23 16.92c0.016-0.714-0.236-1.404-0.673-1.943-0.46-0.566-1.129-0.967-1.925-1.080-0.8-0.098-1.695-0.314-2.586-0.646-0.433-0.159-0.893-0.218-1.344-0.174-0.663 0.064-1.307 0.349-1.819 0.855l-0.72 0.72c-1.77-1.117-3.36-2.667-4.583-4.589l0.726-0.726c0.322-0.33 0.563-0.726 0.707-1.156 0.212-0.632 0.214-1.336-0.039-2.011-0.289-0.753-0.518-1.644-0.644-2.595-0.104-0.714-0.456-1.345-0.963-1.804-0.539-0.486-1.256-0.779-2.027-0.771h-2.996c-0.088 0-0.182 0.004-0.273 0.012-0.824 0.075-1.542 0.478-2.033 1.066s-0.758 1.367-0.683 2.199c0.3 3.076 1.365 6.243 3.216 9.102 1.502 2.413 3.648 4.623 6.298 6.306 2.568 1.697 5.684 2.862 9.086 3.231 0.092 0.009 0.191 0.013 0.288 0.013 0.828-0.003 1.578-0.343 2.118-0.887s0.873-1.297 0.87-2.121zM21 16.92v3c0.001 0.28-0.109 0.53-0.29 0.712s-0.429 0.295-0.706 0.296c-3.149-0.336-5.961-1.391-8.263-2.912-2.428-1.543-4.359-3.537-5.702-5.694-1.697-2.62-2.655-5.481-2.924-8.238-0.024-0.268 0.064-0.526 0.229-0.724s0.403-0.33 0.678-0.355l3.088-0.005c0.271-0.003 0.507 0.094 0.687 0.256 0.17 0.154 0.288 0.366 0.323 0.608 0.142 1.072 0.408 2.117 0.757 3.025 0.081 0.216 0.080 0.447 0.010 0.658-0.049 0.145-0.131 0.281-0.242 0.395l-1.262 1.261c-0.324 0.324-0.379 0.814-0.162 1.201 1.584 2.785 3.839 4.957 6.381 6.378 0.397 0.222 0.882 0.144 1.195-0.166l1.27-1.27c0.166-0.164 0.377-0.257 0.598-0.279 0.152-0.015 0.31 0.005 0.459 0.060 1.022 0.381 2.070 0.636 3.034 0.754 0.241 0.034 0.462 0.166 0.615 0.355 0.147 0.181 0.231 0.412 0.226 0.682z"></path>
</symbol>
<symbol id="icon-plus" viewBox="0 0 24 24">
<path d="M5 13h6v6c0 0.552 0.448 1 1 1s1-0.448 1-1v-6h6c0.552 0 1-0.448 1-1s-0.448-1-1-1h-6v-6c0-0.552-0.448-1-1-1s-1 0.448-1 1v6h-6c-0.552 0-1 0.448-1 1s0.448 1 1 1z"></path>
</symbol>
<symbol id="icon-search" viewBox="0 0 24 24">
<path d="M16.041 15.856c-0.034 0.026-0.067 0.055-0.099 0.087s-0.060 0.064-0.087 0.099c-1.258 1.213-2.969 1.958-4.855 1.958-1.933 0-3.682-0.782-4.95-2.050s-2.050-3.017-2.050-4.95 0.782-3.682 2.050-4.95 3.017-2.050 4.95-2.050 3.682 0.782 4.95 2.050 2.050 3.017 2.050 4.95c0 1.886-0.745 3.597-1.959 4.856zM21.707 20.293l-3.675-3.675c1.231-1.54 1.968-3.493 1.968-5.618 0-2.485-1.008-4.736-2.636-6.364s-3.879-2.636-6.364-2.636-4.736 1.008-6.364 2.636-2.636 3.879-2.636 6.364 1.008 4.736 2.636 6.364 3.879 2.636 6.364 2.636c2.125 0 4.078-0.737 5.618-1.968l3.675 3.675c0.391 0.391 1.024 0.391 1.414 0s0.391-1.024 0-1.414z"></path>
</symbol>
<symbol id="icon-truck" viewBox="0 0 24 24">
<path d="M15 15h-13v-11h13v4zM17 9h2.586l2.414 2.414v3.586h-5zM7 18.5c0 0.414-0.167 0.788-0.439 1.061s-0.647 0.439-1.061 0.439-0.788-0.167-1.061-0.439-0.439-0.647-0.439-1.061 0.167-0.788 0.439-1.061 0.647-0.439 1.061-0.439 0.788 0.167 1.061 0.439 0.439 0.647 0.439 1.061zM22 18.5c0-0.537-0.121-1.045-0.337-1.5h1.337c0.552 0 1-0.448 1-1v-5c0-0.256-0.098-0.512-0.293-0.707l-3-3c-0.181-0.181-0.431-0.293-0.707-0.293h-3v-4c0-0.552-0.448-1-1-1h-15c-0.552 0-1 0.448-1 1v13c0 0.552 0.448 1 1 1h1.337c-0.216 0.455-0.337 0.963-0.337 1.5 0 0.966 0.393 1.843 1.025 2.475s1.509 1.025 2.475 1.025 1.843-0.393 2.475-1.025 1.025-1.509 1.025-2.475c0-0.537-0.121-1.045-0.337-1.5h6.674c-0.216 0.455-0.337 0.963-0.337 1.5 0 0.966 0.393 1.843 1.025 2.475s1.509 1.025 2.475 1.025 1.843-0.393 2.475-1.025 1.025-1.509 1.025-2.475zM20 18.5c0 0.414-0.167 0.788-0.439 1.061s-0.647 0.439-1.061 0.439-0.788-0.167-1.061-0.439-0.439-0.647-0.439-1.061 0.167-0.788 0.439-1.061 0.647-0.439 1.061-0.439 0.788 0.167 1.061 0.439 0.439 0.647 0.439 1.061z"></path>
</symbol>
<symbol id="icon-wifi" viewBox="0 0 24 24">
<path d="M5.64 13.318c1.962-1.634 4.361-2.389 6.733-2.305 2.167 0.077 4.31 0.855 6.071 2.308 0.426 0.351 1.056 0.291 1.408-0.135s0.291-1.056-0.135-1.408c-2.107-1.738-4.674-2.671-7.272-2.763-2.846-0.101-5.731 0.806-8.084 2.767-0.424 0.353-0.482 0.984-0.128 1.408s0.984 0.482 1.408 0.128zM2.081 9.75c2.937-2.589 6.6-3.82 10.236-3.737 3.443 0.079 6.859 1.337 9.604 3.739 0.416 0.364 1.047 0.322 1.411-0.094s0.322-1.047-0.094-1.411c-3.108-2.72-6.977-4.145-10.876-4.234-4.119-0.094-8.275 1.303-11.603 4.237-0.415 0.365-0.454 0.997-0.089 1.411s0.997 0.454 1.411 0.089zM9.109 16.925c0.99-0.704 2.146-0.995 3.274-0.906 0.891 0.070 1.765 0.378 2.523 0.909 0.452 0.317 1.076 0.207 1.393-0.245s0.207-1.076-0.245-1.393c-1.053-0.738-2.269-1.167-3.513-1.265-1.58-0.125-3.204 0.285-4.59 1.269-0.45 0.32-0.556 0.944-0.236 1.394s0.944 0.556 1.394 0.236zM12 21c0.552 0 1-0.448 1-1s-0.448-1-1-1-1 0.448-1 1 0.448 1 1 1z"></path>
</symbol>
<symbol id="icon-fork-and-knife" viewBox="0 0 16 16">
<path d="M7 0c-0.552 0-1 0.447-1 1v5h-1v-5c0-0.553-0.448-1-1-1s-1 0.447-1 1v5h-1v-5c0-0.553-0.448-1-1-1s-1 0.447-1 1v6c0 0.553 0.448 1 1 1h2v7c0 0.553 0.448 1 1 1s1-0.447 1-1v-7h2c0.552 0 1-0.447 1-1v-6c0-0.553-0.448-1-1-1zM14 0c0 0-2 0.645-2 3v2c0 1.305 0.837 2.403 2 2.816v7.184c0 0.553 0.448 1 1 1s1-0.447 1-1v-15h-2z"></path>
</symbol>
</defs>
</svg>
